<svg width="24" height="24" viewBox="0 0 24 24" fill="none" xmlns="http://www.w3.org/2000/svg">
<g id="bag-2">
<g id="bag-2_2">
<g id="bag-2_3">
<path id="Vector" d="M19.96 8.96002C19.29 8.22002 18.28 7.79002 16.88 7.64002V6.88002C16.88 5.51002 16.3 4.19002 15.28 3.27002C14.25 2.33002 12.91 1.89002 11.52 2.02002C9.12999 2.25002 7.11999 4.56002 7.11999 7.06002V7.64002C5.71999 7.79002 4.70999 8.22002 4.03999 8.96002C3.06999 10.04 3.09999 11.48 3.20999 12.48L3.90999 18.05C4.11999 20 4.90999 22 9.20999 22H14.79C19.09 22 19.88 20 20.09 18.06L20.79 12.47C20.9 11.48 20.92 10.04 19.96 8.96002ZM11.66 3.41002C12.66 3.32002 13.61 3.63002 14.35 4.30002C15.08 4.96002 15.49 5.90002 15.49 6.88002V7.58002H8.50999V7.06002C8.50999 5.28002 9.97999 3.57002 11.66 3.41002ZM8.41999 13.15H8.40999C7.85999 13.15 7.40999 12.7 7.40999 12.15C7.40999 11.6 7.85999 11.15 8.40999 11.15C8.96999 11.15 9.41999 11.6 9.41999 12.15C9.41999 12.7 8.96999 13.15 8.41999 13.15ZM15.42 13.15H15.41C14.86 13.15 14.41 12.7 14.41 12.15C14.41 11.6 14.86 11.15 15.41 11.15C15.97 11.15 16.42 11.6 16.42 12.15C16.42 12.7 15.97 13.15 15.42 13.15Z" fill="#0F172A"/>
</g>
</g>
</g>
</svg>
