<svg width="24" height="24" viewBox="0 0 24 24" fill="none" xmlns="http://www.w3.org/2000/svg">
<g id="receipt-tax">
<g id="Group">
<path id="Vector" fill-rule="evenodd" clip-rule="evenodd" d="M5.99998 2.40002C5.36346 2.40002 4.75301 2.65288 4.30292 3.10297C3.85283 3.55306 3.59998 4.1635 3.59998 4.80002V21.6L7.79998 19.2L12 21.6L16.2 19.2L20.4 21.6V4.80002C20.4 4.1635 20.1471 3.55306 19.697 3.10297C19.2469 2.65288 18.6365 2.40002 18 2.40002H5.99998ZM8.99998 6.00002C8.52259 6.00002 8.06475 6.18967 7.72718 6.52723C7.38962 6.8648 7.19998 7.32263 7.19998 7.80002C7.19998 8.27741 7.38962 8.73525 7.72718 9.07282C8.06475 9.41038 8.52259 9.60002 8.99998 9.60002C9.47737 9.60002 9.9352 9.41038 10.2728 9.07282C10.6103 8.73525 10.8 8.27741 10.8 7.80002C10.8 7.32263 10.6103 6.8648 10.2728 6.52723C9.9352 6.18967 9.47737 6.00002 8.99998 6.00002ZM16.4484 6.35162C16.2233 6.12666 15.9182 6.00028 15.6 6.00028C15.2818 6.00028 14.9766 6.12666 14.7516 6.35162L7.55158 13.5516C7.43696 13.6623 7.34555 13.7947 7.28265 13.9411C7.21976 14.0875 7.18666 14.245 7.18528 14.4043C7.18389 14.5637 7.21425 14.7217 7.27459 14.8692C7.33493 15.0166 7.42403 15.1506 7.5367 15.2633C7.64937 15.376 7.78336 15.4651 7.93083 15.5254C8.07831 15.5857 8.23632 15.6161 8.39566 15.6147C8.55499 15.6133 8.71246 15.5802 8.85886 15.5173C9.00527 15.4545 9.13768 15.363 9.24838 15.2484L16.4484 8.04842C16.6733 7.82339 16.7997 7.51822 16.7997 7.20002C16.7997 6.88183 16.6733 6.57666 16.4484 6.35162ZM15 12C14.5226 12 14.0647 12.1897 13.7272 12.5272C13.3896 12.8648 13.2 13.3226 13.2 13.8C13.2 14.2774 13.3896 14.7353 13.7272 15.0728C14.0647 15.4104 14.5226 15.6 15 15.6C15.4774 15.6 15.9352 15.4104 16.2728 15.0728C16.6103 14.7353 16.8 14.2774 16.8 13.8C16.8 13.3226 16.6103 12.8648 16.2728 12.5272C15.9352 12.1897 15.4774 12 15 12Z" fill="#111827"/>
</g>
</g>
</svg>
