<svg width="25" height="24" viewBox="0 0 25 24" fill="none" xmlns="http://www.w3.org/2000/svg">
<g id="bag-2">
<g id="bag-2_2">
<path id="Vector" d="M20.26 8.9599C19.59 8.2199 18.58 7.7899 17.18 7.6399V6.8799C17.18 5.5099 16.6 4.1899 15.58 3.2699C14.55 2.3299 13.21 1.8899 11.82 2.0199C9.43004 2.2499 7.42004 4.5599 7.42004 7.0599V7.6399C6.02004 7.7899 5.01004 8.2199 4.34004 8.9599C3.37004 10.0399 3.40004 11.4799 3.51004 12.4799L4.21004 18.0499C4.42004 19.9999 5.21004 21.9999 9.51004 21.9999H15.09C19.39 21.9999 20.18 19.9999 20.39 18.0599L21.09 12.4699C21.2 11.4799 21.22 10.0399 20.26 8.9599ZM11.96 3.4099C12.96 3.3199 13.91 3.6299 14.65 4.2999C15.38 4.9599 15.79 5.8999 15.79 6.8799V7.5799H8.81004V7.0599C8.81004 5.2799 10.28 3.5699 11.96 3.4099ZM8.72004 13.1499H8.71004C8.16004 13.1499 7.71004 12.6999 7.71004 12.1499C7.71004 11.5999 8.16004 11.1499 8.71004 11.1499C9.27004 11.1499 9.72004 11.5999 9.72004 12.1499C9.72004 12.6999 9.27004 13.1499 8.72004 13.1499ZM15.72 13.1499H15.71C15.16 13.1499 14.71 12.6999 14.71 12.1499C14.71 11.5999 15.16 11.1499 15.71 11.1499C16.27 11.1499 16.72 11.5999 16.72 12.1499C16.72 12.6999 16.27 13.1499 15.72 13.1499Z" fill="#0F172A"/>
</g>
</g>
</svg>
