<svg width="24" height="24" viewBox="0 0 24 24" fill="none" xmlns="http://www.w3.org/2000/svg">
<g id="box-tick">
<g id="box-tick_2">
<g id="box-tick_3">
<g id="Group">
<path id="Vector" d="M22.9999 17.91C23.0199 18.66 22.8199 19.37 22.4599 19.98C22.2599 20.34 21.9899 20.67 21.6899 20.94C20.9999 21.58 20.0899 21.97 19.0799 22C17.6199 22.03 16.3299 21.28 15.6199 20.13C15.2399 19.54 15.0099 18.83 14.9999 18.08C14.9699 16.82 15.5299 15.68 16.4299 14.93C17.1099 14.37 17.9699 14.02 18.9099 14C21.1199 13.95 22.9499 15.7 22.9999 17.91Z" stroke="#0F172A" stroke-width="1.5" stroke-miterlimit="10" stroke-linecap="round" stroke-linejoin="round"/>
<path id="Vector_2" d="M17.4399 18.03L18.45 18.99L20.5399 16.97" stroke="#0F172A" stroke-width="1.5" stroke-linecap="round" stroke-linejoin="round"/>
</g>
<g id="Group_2">
<g id="Group_3">
<path id="Vector_3" d="M3.17004 7.44L12 12.55L20.77 7.46997" stroke="#0F172A" stroke-width="1.5" stroke-linecap="round" stroke-linejoin="round"/>
<path id="Vector_4" d="M12 21.61V12.54" stroke="#0F172A" stroke-width="1.5" stroke-linecap="round" stroke-linejoin="round"/>
</g>
<path id="Vector_5" d="M21.61 9.17V14.83C21.61 14.88 21.61 14.92 21.6 14.97C20.9 14.36 20 14 19 14C18.06 14 17.19 14.33 16.5 14.88C15.58 15.61 15 16.74 15 18C15 18.75 15.21 19.46 15.58 20.06C15.67 20.22 15.78 20.37 15.9 20.51L14.07 21.52C12.93 22.16 11.07 22.16 9.92999 21.52L4.59 18.56C3.38 17.89 2.39001 16.21 2.39001 14.83V9.17C2.39001 7.79 3.38 6.11002 4.59 5.44002L9.92999 2.48C11.07 1.84 12.93 1.84 14.07 2.48L19.41 5.44002C20.62 6.11002 21.61 7.79 21.61 9.17Z" stroke="#0F172A" stroke-width="1.5" stroke-linecap="round" stroke-linejoin="round"/>
</g>
</g>
</g>
</g>
</svg>
