<svg width="24" height="24" viewBox="0 0 24 24" fill="none" xmlns="http://www.w3.org/2000/svg">
<g id="dashboard">
<g id="Group">
<path id="Vector" d="M12 15C13.1046 15 14 14.1046 14 13C14 11.8954 13.1046 11 12 11C10.8954 11 10 11.8954 10 13C10 14.1046 10.8954 15 12 15Z" stroke="#0F172A" stroke-width="1.5" stroke-linecap="round" stroke-linejoin="round"/>
<path id="Vector_2" d="M13.45 11.55L15.5 9.5L13.45 11.55ZM6.4 20C4.93815 18.8381 3.87391 17.2502 3.35478 15.4565C2.83564 13.6627 2.88732 11.7519 3.50265 9.98881C4.11797 8.22573 5.26647 6.69771 6.78899 5.6165C8.3115 4.53529 10.1326 3.95444 12 3.95444C13.8674 3.95444 15.6885 4.53529 17.211 5.6165C18.7335 6.69771 19.882 8.22573 20.4974 9.98881C21.1127 11.7519 21.1644 13.6627 20.6452 15.4565C20.1261 17.2502 19.0619 18.8381 17.6 20H6.4Z" stroke="#0F172A" stroke-width="1.5" stroke-linecap="round" stroke-linejoin="round"/>
</g>
</g>
</svg>
