<svg width="20" height="18" viewBox="0 0 20 18" fill="none" xmlns="http://www.w3.org/2000/svg">
<g id="Group">
<path id="Vector" d="M2.5 1.5L17.5 16.5" stroke="#CBD5E1" stroke-width="1.5" stroke-linecap="round" stroke-linejoin="round"/>
<path id="Vector_2" d="M8.82003 7.82249C8.5073 8.13501 8.33152 8.55896 8.33136 9.00107C8.3312 9.44319 8.50668 9.86726 8.8192 10.18C9.13171 10.4927 9.55566 10.6685 9.99777 10.6687C10.4399 10.6688 10.864 10.4933 11.1767 10.1808" stroke="#CBD5E1" stroke-width="1.5" stroke-linecap="round" stroke-linejoin="round"/>
<path id="Vector_3" d="M7.80252 3.47083C8.51704 3.26643 9.25685 3.16403 10 3.16666C13.3334 3.16666 16.1109 5.11083 18.3334 8.99999C17.685 10.1342 16.99 11.1033 16.2475 11.9067M14.4642 13.4575C13.105 14.3742 11.6184 14.8333 10 14.8333C6.66669 14.8333 3.88919 12.8892 1.66669 8.99999C2.80752 7.00416 4.09419 5.52083 5.52669 4.54916" stroke="#CBD5E1" stroke-width="1.5" stroke-linecap="round" stroke-linejoin="round"/>
</g>
</svg>
