<svg width="24" height="24" viewBox="0 0 24 24" fill="none" xmlns="http://www.w3.org/2000/svg">
<g id="fingerprint">
<g id="Group">
<path id="Vector" d="M18.9 7C19.8045 8.50118 20.1909 10.2578 20 12V13C19.9988 14.0529 20.2747 15.0875 20.8 16M8 11C8 9.93913 8.42143 8.92172 9.17157 8.17157C9.92172 7.42143 10.9391 7 12 7C13.0609 7 14.0783 7.42143 14.8284 8.17157C15.5786 8.92172 16 9.93913 16 11V12C16 14.1637 16.7018 16.269 18 18" stroke="#0F172A" stroke-width="1.5" stroke-linecap="round" stroke-linejoin="round"/>
<path id="Vector_2" d="M12.0001 11V13C11.9969 15.8594 12.8693 18.6512 14.5001 21M4.90006 19C4.22531 16.7303 3.9214 14.3666 4.00006 12V11C3.99622 9.59386 4.36308 8.21155 5.06366 6.99236C5.76425 5.77316 6.7738 4.76017 7.9906 4.05544C9.2074 3.35071 10.5885 2.97914 11.9946 2.97819C13.4007 2.97724 14.7823 3.34692 16.0001 4.05M8.00006 15C8.24476 17.0898 8.85399 19.1206 9.80006 21L8.00006 15Z" stroke="#0F172A" stroke-width="1.5" stroke-linecap="round" stroke-linejoin="round"/>
</g>
</g>
</svg>
