<svg width="25" height="24" viewBox="0 0 25 24" fill="none" xmlns="http://www.w3.org/2000/svg">
<g id="home">
<g id="home-2">
<path id="Vector" d="M14.8931 3.19955L14.8934 3.19974L20.6533 7.22968C20.6533 7.2297 20.6534 7.22972 20.6534 7.22974C21.1226 7.55821 21.5669 8.09677 21.8943 8.72395C22.2217 9.35117 22.41 10.0243 22.41 10.6001V17.3801C22.41 19.6539 20.5639 21.5001 18.29 21.5001H7.51001C5.23756 21.5001 3.39001 19.6453 3.39001 17.3701V10.4701C3.39001 9.93562 3.5604 9.29655 3.85859 8.69092C4.15664 8.08558 4.56108 7.55694 4.98753 7.22431L4.98764 7.22423L9.99626 3.3153C9.99648 3.31513 9.9967 3.31496 9.99692 3.31479C11.3338 2.2795 13.5028 2.22547 14.8931 3.19955ZM12.9 19.2501C13.5862 19.2501 14.15 18.6862 14.15 18.0001V15.0001C14.15 14.3139 13.5862 13.7501 12.9 13.7501C12.2139 13.7501 11.65 14.3139 11.65 15.0001V18.0001C11.65 18.6862 12.2139 19.2501 12.9 19.2501Z" fill="#0F172A" stroke="#0F172A"/>
</g>
</g>
</svg>
