<svg width="24" height="24" viewBox="0 0 24 24" fill="none" xmlns="http://www.w3.org/2000/svg">
<g id="like">
<g id="like_2">
<g id="like_3">
<path id="Vector" d="M7.47998 18.35L10.58 20.75C10.98 21.15 11.88 21.35 12.48 21.35H16.28C17.48 21.35 18.78 20.45 19.08 19.25L21.48 11.95C21.98 10.55 21.08 9.35 19.58 9.35H15.58C14.98 9.35 14.48 8.85 14.58 8.15L15.08 4.95C15.28 4.05 14.68 3.05 13.78 2.75C12.98 2.45 11.98 2.85 11.58 3.45L7.47998 9.55" stroke="#0F172A" stroke-width="1.5" stroke-miterlimit="10"/>
<path id="Vector_2" d="M2.37988 18.35V8.55C2.37988 7.15 2.97988 6.65 4.37988 6.65H5.37988C6.77988 6.65 7.37988 7.15 7.37988 8.55V18.35C7.37988 19.75 6.77988 20.25 5.37988 20.25H4.37988C2.97988 20.25 2.37988 19.75 2.37988 18.35Z" stroke="#0F172A" stroke-width="1.5" stroke-linecap="round" stroke-linejoin="round"/>
</g>
</g>
</g>
</svg>
