<svg width="44" height="44" viewBox="0 0 44 44" fill="none" xmlns="http://www.w3.org/2000/svg">
<g id="Logo">
<circle id="Ellipse 94" cx="22" cy="22" r="22" fill="#0F172A"/>
<circle id="Ellipse 95" opacity="0.85" cx="22" cy="22" r="18.0714" fill="#2A3646"/>
<path id="S" d="M22.4023 30.2751C23.561 30.2751 24.573 30.0698 25.4383 29.6591C26.3183 29.2338 27.0076 28.6545 27.5063 27.9211C28.005 27.1731 28.2543 26.3225 28.2543 25.3691C28.2543 23.1691 26.9416 21.6438 24.3163 20.7931L21.1703 19.7811C20.173 19.4438 19.6743 18.8865 19.6743 18.1091C19.6743 17.5811 19.887 17.1558 20.3123 16.8331C20.7376 16.4958 21.295 16.3271 21.9843 16.3271C22.7763 16.3271 23.4803 16.5471 24.0963 16.9871C24.7123 17.4125 25.1743 18.0065 25.4823 18.7691L28.2543 17.5151C27.7996 16.2245 27.0076 15.2125 25.8783 14.4791C24.7636 13.7311 23.4656 13.3571 21.9843 13.3571C20.8696 13.3571 19.8796 13.5625 19.0143 13.9731C18.1636 14.3838 17.4963 14.9558 17.0123 15.6891C16.543 16.4225 16.3083 17.2731 16.3083 18.2411C16.3083 20.4705 17.621 22.0178 20.2463 22.8831L23.4583 23.9391C24.4263 24.2618 24.9103 24.8045 24.9103 25.5671C24.9103 26.0951 24.6976 26.5205 24.2723 26.8431C23.8616 27.1511 23.3116 27.3051 22.6223 27.3051C21.7423 27.3051 20.9356 27.0485 20.2023 26.5351C19.4836 26.0218 18.919 25.3178 18.5083 24.4231L15.7143 25.6771C16.037 26.6158 16.521 27.4298 17.1663 28.1191C17.8263 28.8085 18.6036 29.3438 19.4983 29.7251C20.4076 30.0918 21.3756 30.2751 22.4023 30.2751Z" fill="white"/>
</g>
</svg>
