<svg width="24" height="24" viewBox="0 0 24 24" fill="none" xmlns="http://www.w3.org/2000/svg">
<g id="map-pin">
<path id="Vector" d="M12 17L13 15V9.858C14.721 9.411 16 7.858 16 6C16 3.794 14.206 2 12 2C9.794 2 8 3.794 8 6C8 7.858 9.279 9.411 11 9.858V15L12 17ZM10 6C10 4.897 10.897 4 12 4C13.103 4 14 4.897 14 6C14 7.103 13.103 8 12 8C10.897 8 10 7.103 10 6Z" fill="#0F172A"/>
<path id="Vector_2" d="M16.267 10.563L15.734 12.491C18.325 13.207 20 14.584 20 16C20 17.892 16.715 20 12 20C7.285 20 4 17.892 4 16C4 14.584 5.675 13.207 8.267 12.49L7.734 10.562C4.197 11.54 2 13.623 2 16C2 19.364 6.393 22 12 22C17.607 22 22 19.364 22 16C22 13.623 19.803 11.54 16.267 10.563Z" fill="#0F172A"/>
</g>
</svg>
