<svg width="24" height="24" viewBox="0 0 24 24" fill="none" xmlns="http://www.w3.org/2000/svg">
<g id="profile">
<g id="profile_2">
<g id="profile_3">
<path id="Vector" d="M12.1601 10.87C12.0601 10.86 11.9401 10.86 11.8301 10.87C9.45006 10.79 7.56006 8.84 7.56006 6.44C7.56006 3.99 9.54006 2 12.0001 2C14.4501 2 16.4401 3.99 16.4401 6.44C16.4301 8.84 14.5401 10.79 12.1601 10.87Z" stroke="#0F172A" stroke-width="1.5" stroke-linecap="round" stroke-linejoin="round"/>
<path id="Vector_2" d="M6.815 13.3725C4.395 14.9925 4.395 17.6325 6.815 19.2425C9.565 21.0825 14.075 21.0825 16.825 19.2425C19.245 17.6225 19.245 14.9825 16.825 13.3725C14.085 11.5425 9.575 11.5425 6.815 13.3725Z" stroke="#0F172A" stroke-width="1.5" stroke-linecap="round" stroke-linejoin="round"/>
</g>
</g>
</g>
</svg>
