<svg width="24" height="24" viewBox="0 0 24 24" fill="none" xmlns="http://www.w3.org/2000/svg">
<g id="truck-delivery">
<g id="Group">
<path id="Vector" d="M7 19C8.10457 19 9 18.1046 9 17C9 15.8954 8.10457 15 7 15C5.89543 15 5 15.8954 5 17C5 18.1046 5.89543 19 7 19Z" stroke="#0F172A" stroke-width="1.5" stroke-linecap="round" stroke-linejoin="round"/>
<path id="Vector_2" d="M17 19C18.1046 19 19 18.1046 19 17C19 15.8954 18.1046 15 17 15C15.8954 15 15 15.8954 15 17C15 18.1046 15.8954 19 17 19Z" stroke="#0F172A" stroke-width="1.5" stroke-linecap="round" stroke-linejoin="round"/>
<path id="Vector_3" d="M5 17H3V13M2 5H13V17M9 17H15M19 17H21V11H13M13 6H18L21 11M3 9H7" stroke="#0F172A" stroke-width="1.5" stroke-linecap="round" stroke-linejoin="round"/>
</g>
</g>
</svg>
